<svg width="20" height="21" viewBox="0 0 20 21" fill="none" xmlns="http://www.w3.org/2000/svg">
<path d="M10.593 20.2579L10.582 20.2599L10.511 20.2949L10.491 20.2989L10.477 20.2949L10.406 20.2599C10.3953 20.2566 10.3873 20.2583 10.382 20.2649L10.378 20.2749L10.361 20.7029L10.366 20.7229L10.376 20.7359L10.48 20.8099L10.495 20.8139L10.507 20.8099L10.611 20.7359L10.623 20.7199L10.627 20.7029L10.61 20.2759C10.6073 20.2653 10.6017 20.2593 10.593 20.2579ZM10.858 20.1449L10.845 20.1469L10.66 20.2399L10.65 20.2499L10.647 20.2609L10.665 20.6909L10.67 20.7029L10.678 20.7099L10.879 20.8029C10.8917 20.8063 10.9013 20.8036 10.908 20.7949L10.912 20.7809L10.878 20.1669C10.8747 20.1549 10.868 20.1476 10.858 20.1449ZM10.143 20.1469C10.1386 20.1443 10.1333 20.1434 10.1283 20.1445C10.1233 20.1456 10.1188 20.1487 10.116 20.1529L10.11 20.1669L10.076 20.7809C10.0767 20.7929 10.0823 20.8009 10.093 20.8049L10.108 20.8029L10.309 20.7099L10.319 20.7019L10.323 20.6909L10.34 20.2609L10.337 20.2489L10.327 20.2389L10.143 20.1469Z" fill="#808080"/>
<path d="M18 14.5C18.3852 14.5002 18.7556 14.6486 19.0344 14.9144C19.3132 15.1802 19.479 15.5431 19.4975 15.9279C19.516 16.3127 19.3858 16.6898 19.1338 16.9812C18.8818 17.2726 18.5274 17.4558 18.144 17.493L18 17.5H2C1.61478 17.4998 1.24441 17.3514 0.965613 17.0856C0.686821 16.8198 0.520988 16.4569 0.502476 16.0721C0.483964 15.6873 0.614192 15.3102 0.866175 15.0188C1.11816 14.7274 1.47258 14.5442 1.856 14.507L2 14.5H18ZM18 7.5C18.3978 7.5 18.7794 7.65804 19.0607 7.93934C19.342 8.22064 19.5 8.60218 19.5 9C19.5 9.39782 19.342 9.77936 19.0607 10.0607C18.7794 10.342 18.3978 10.5 18 10.5H2C1.60218 10.5 1.22064 10.342 0.93934 10.0607C0.658035 9.77936 0.5 9.39782 0.5 9C0.5 8.60218 0.658035 8.22064 0.93934 7.93934C1.22064 7.65804 1.60218 7.5 2 7.5H18ZM18 0.5C18.3978 0.5 18.7794 0.658035 19.0607 0.93934C19.342 1.22064 19.5 1.60218 19.5 2C19.5 2.39782 19.342 2.77936 19.0607 3.06066C18.7794 3.34196 18.3978 3.5 18 3.5H2C1.60218 3.5 1.22064 3.34196 0.93934 3.06066C0.658035 2.77936 0.5 2.39782 0.5 2C0.5 1.60218 0.658035 1.22064 0.93934 0.93934C1.22064 0.658035 1.60218 0.5 2 0.5H18Z" fill="#808080"/>
</svg>
